<svg width="158" height="164" fill="none" xmlns="http://www.w3.org/2000/svg"><g clip-path="url(#a)"><path d="M93.565 159.166c-.208.138-.416.277-.624.346a87.624 87.624 0 0 1-24.553 4.35c-.486 0-.971.069-1.457.069l16.161-62.424.416-1.519-6.38-4.557-1.665-1.174 6.589-15.537c5.132.138 8.392.345 8.392.345l1.457 37.841 1.664 42.26Z" fill="#fff"/><path d="m84.48 102.888-16.092 61.043c-.486 0-.971.069-1.457.069l16.161-62.424 1.387 1.312ZM84.48 78.72l-7.353 16.71-1.664-1.173 6.589-15.537h2.427Z" fill="#99D3FF"/><path d="m83.508 99.988-.416 1.519-16.16 62.424h-3.399l6.658-85.418s4.925-3.798 11.86.138l-6.588 15.537 1.664 1.174 6.381 4.626Z" fill="#fff"/><path d="M158 79.618v.276c-.139 1.726-1.457 3.314-2.566 4.557-.486.553-.971 1.174-1.734 1.382a1.432 1.432 0 0 1-.763 0h-.139c-.139.138-.208.276-.347.414-.971 1.174-1.734 1.726-1.734 1.726-1.734.484-4.577-.207-4.577-.207l-.694.69-.555.484-8.323-7.596 1.11-1.588s-.416-5.317-.416-6.353c0 0 1.595-3.384 3.398-4.488 0 0 1.526-.346 3.191.207l5.479-7.044s2.705-4.005 5.341-2.002c0 0 2.15 1.588-.694 4.972l-4.092 4.626c.347-.138.763-.138 1.179-.069 1.318.276 2.22 1.588 2.22 2.9.485-.276 1.04-.414 1.664-.276.486.07.902.345 1.249.69.138.139.277.277.346.415.07.069.139.207.139.276.07.07.07.138.07.207 0 .07 0 .07.069.138v.07c0 .069.069.138.069.207 0 .069.07.138.07.207 0 .069 0 .138.069.207v.69c0 .139 0 .277-.069.415 0 .069 0 .207-.07.276 0 .138-.069.276-.069.414-.139.484-.278.898-.486 1.312h.07c.208.07.416.138.555.207.624.277 1.04.967 1.04 1.658Z" fill="#E2ACAB"/><path d="M158 79.825c-.139 1.726-1.457 3.314-2.566 4.557-.486.553-.971 1.174-1.734 1.381a1.432 1.432 0 0 1-.763 0h-.139c-.347-.069-.694-.345-1.04-.69-.278-.345-.347-.69-.347-1.105 0-.207 0-.414.069-.621.208-.898.694-1.796 1.11-2.348.486-.69.971-1.45 1.457-2.14.485-.691 1.387-1.382 2.288-1.244h.07c.208.07.416.138.555.207.693.484 1.109 1.312 1.04 2.003Z" fill="#E2ACAB"/><path d="M157.029 75.198c.069-1.312-.763-2.762-2.15-3.038-1.318-.276-2.566.76-3.329 1.726-.694.967-1.388 2.003-2.081 2.97-.902 1.38-2.428 4.212-1.11 5.73.694.76 1.665 1.175 2.705.968 1.04-.276 1.665-1.105 2.428-1.934 1.526-1.726 3.398-3.936 3.537-6.422Z" fill="#E2ACAB"/><path d="m43.488 93.566-.07.484-5.617 32.04-11.722-3.314-.208-6.629c-.486-17.333-.832-32.662-.832-32.662 1.734-.76 3.814-1.381 6.173-1.934.901-.207 1.803-.414 2.774-.552l9.363 12.498.14.07Z" fill="#fff"/><path d="M62.423 163.931c-1.179-.069-2.358-.069-3.537-.207l-12.9-19.128c.623-3.314 1.525-9.667.762-15.053-.07-.346-.07-.622-.139-.967l-8.808-2.486 5.618-32.04.07-.484-.07-.069L33.986 81c.486-.276 1.04-.553 1.526-.76 6.38-2.831 11.028-.898 11.028-.898 5.48 10.497 13.317 65.739 15.883 84.59Z" fill="#fff"/><path d="M27.397 155.368c-.208-3.797-.486-8.493-.694-13.672l18.797 5.11.208-.829c.069-.414.138-.897.277-1.45l12.9 19.128c-11.166-.691-21.847-3.66-31.488-8.287Z" fill="#fff"/><path d="M70.122 78.582 63.464 164h-1.04c-2.567-18.92-10.405-74.162-15.884-84.59 7.837-.69 16.23-.897 23.582-.828Z" fill="#99D3FF"/><path d="m66.377 105.098-3.954 20.716-4.924 25.411-1.457 7.941-32.599-6.974 1.665-7.458 3.884-17.677 5.896-27.069 31.489 5.11Z" fill="#E6C34B"/><path d="m41.962 101.162-.763 3.315 19.074 3.176.416-3.453c.07 0-9.225-4.419-18.727-3.038ZM62.423 125.814l-4.855 25.411c-1.318-.276-2.982-.828-3.815-1.726l-1.526-.414-2.011-.553c-.208.691-.555 1.381-.832 2.003l-2.705-.829c-.14.553-.208.829-.208.829l-18.727-5.11-2.636-.691 3.884-17.677 18.658 5.248c.069.345.069.621.138.967l3.954.138s.07.552.139 1.45l.763-.207 2.358-.76s.416-.898 1.179-2.072c1.179-1.795 3.121-4.35 5.618-5.662.139-.138.347-.276.624-.345Z" fill="#AD9238"/><path d="M46.748 129.543c.763 5.317-.139 11.67-.763 15.053L36.9 131.131l.902-5.041 8.808 2.486c.07.345.07.621.139.967Z" fill="#4EFF87"/><path d="M45.708 146.046c-.14.553-.208.829-.208.829l-18.797-5.11-8.462-2.279C-3.399 134.376.208 127.885.208 127.885c4.647-23.339 24.83-44.331 24.83-44.331s.278 15.33.833 32.662c-2.22 3.038-3.537 5.593-3.537 5.593l3.745 1.036 20.53 5.731c.07.345.139.621.139.967.902 6.284-.555 14.017-1.04 16.503ZM144.059 94.326l-26.773 34.526s-3.953 6.008-14.565-1.726c0 0-1.873-1.657-4.3-3.936-2.081-1.934-4.509-4.281-6.45-6.422l-1.25-32.8-.207-5.04s12.207 13.12 20.599 28.311l20.114-25.412.694.622 11.444 11.048.694.829Z" fill="#fff"/><path d="m146.625 90.39-3.329 3.245-11.514-11.048 2.567-3.246 2.219 2.003 1.457 1.312 6.936 6.215 1.664 1.519Z" fill="#99D3FF"/><path d="M148.845 67.395c.693.484 1.179.898 1.109 1.105-.069.138-.763-.069-1.525-.621-.694-.553-1.11-1.174-.972-1.312.139-.07.763.345 1.388.828ZM151.342 64.012c.624.69 1.04 1.312.901 1.38-.139.139-.763-.344-1.318-.966-.693-.552-1.179-1.105-1.04-1.243.069-.138.763.207 1.457.829Z" fill="#11110A"/><path d="M49.245 144.872c-.208.691-.555 1.381-.832 2.003l-2.705-.829c.485-2.486 1.942-10.219 1.04-16.503l3.954.138s.069.552.138 1.45c.208 2.624.347 8.355-1.595 13.741Z" fill="#99D3FF"/><path d="M69.082 132.65s-.14 7.734-4.023 12.153c-1.526 1.796-3.676 3.039-6.659 2.97 0 0-4.161-.277-5.687-2.003l-1.526-.414-2.011-.553c1.942-5.317 1.803-11.117 1.595-13.672l.763-.276 2.358-.76s.416-.898 1.18-2.071c1.178-1.796 3.12-4.351 5.617-5.663.833-.414 1.665-.69 2.566-.759l.417-2.279c.069.069 6.311 1.312 5.41 13.327Z" fill="#E2ACAB"/><path d="M60.69 122.43c-2.498 1.312-4.51 3.867-5.619 5.663.07-.346.832-7.596 1.18-8.701 0 0 .693-3.107 2.219-2.969 0 0 2.08 0 2.22 2.969 0 0 .069 2.072 0 3.038ZM69.082 132.65s-.14 7.734-4.023 12.153c3.815-18.299-1.734-23.201-1.734-23.201l.416-2.279c0 .069 6.242 1.312 5.34 13.327Z" fill="#E2ACAB"/><path d="M51.603 76.303s4.44-2.693 12.693-1.45l1.387 4.35-2.705 3.867-6.728 1.865-4.23-3.798-.417-4.834Z" fill="#11110A"/><path d="m63.117 77.546-3.538 7.734-6.52-7.32v-7.25h9.572l.139 2.555.347 4.281Z" fill="#E2ACAB"/><path d="M62.77 73.265c-1.942.76-5.826 2.002-9.71 1.726V70.71h9.571l.139 2.555Z" fill="#11110A"/><path d="m59.58 85.28-.625 2.417-2.22 8.631-8.877-15.053s.208-2.417 1.803-3.867c.486-.483 1.11-.829 1.942-.967l1.457 1.588 6.52 7.251ZM68.596 80.101l-4.3 14.915-3.676-7.595-1.04-2.141 3.537-7.665 1.248-2.693c3.19 1.174 4.231 5.18 4.231 5.18Z" fill="#99D3FF"/><path d="M153.214 72.643c.07-1.312-.763-2.762-2.15-3.038-1.318-.276-2.566.76-3.329 1.726-.694.967-1.387 2.003-2.081 2.97-.902 1.38-2.427 4.212-1.11 5.731.694.76 1.665 1.174 2.705.967 1.041-.276 1.665-1.105 2.428-1.934 1.456-1.795 3.398-3.936 3.537-6.422Z" fill="#E2ACAB"/><path d="M153.076 71.608c.069.345.138.69.138.966-.138 2.486-2.081 4.696-3.606 6.422-.694.829-1.318 1.657-2.428 1.934-1.04.276-2.011-.138-2.705-.967-.069-.07-.069-.138-.139-.207.07.345.208.621.416.897.694.76 1.665 1.174 2.705.967 1.041-.276 1.665-1.105 2.428-1.933 1.526-1.727 3.399-3.936 3.607-6.422.069-.484-.07-1.105-.416-1.657ZM140.799 73.955s3.052 5.8 6.45 1.934c.07 0-3.398-.414-6.45-1.934Z" fill="#11110A"/><path d="M147.457 75.75s-2.08 2.21-6.866-2.002l-.139 5.593-2.358 3.315-1.457-1.312 1.11-1.588s-.416-5.317-.416-6.353c0 0 1.595-3.384 3.399-4.489 0 0 3.745-.966 5.964 2.348-.069 0 2.428 2.832.763 4.489Z" fill="#E2ACAB"/><path d="M144.059 72.643c.485-.69.971-1.174 1.11-1.105.138.07-.139.76-.555 1.45-.486.691-.971 1.175-1.11 1.106-.139-.07.069-.691.555-1.45ZM154.532 83.554c.416.414.624.76.486.897-.139.139-.555-.069-.902-.483-.416-.345-.694-.69-.624-.829.069-.138.624 0 1.04.415ZM151.411 80.86c.555.484.971.967.832 1.106-.138.138-.624-.139-1.248-.622-.555-.483-.971-.967-.833-1.105.139-.138.694.138 1.249.622ZM147.735 77.753c.555.415 1.04.829.902.967-.07.138-.625-.069-1.249-.483-.277-.207-.555-.484-.693-.69-.139-.208-.139-.415-.07-.484.07 0 .208.069.416.138.139.138.416.345.694.552Z" fill="#11110A"/><path d="M156.474 73.955c-.139-.138-.277-.345-.416-.483.208.207.347.345.416.483Z" fill="#421471"/><path d="M156.474 77.684c.208.07.416.138.555.207-.694 1.52-1.942 2.97-2.982 4.144-.694.828-1.318 1.657-2.428 1.933h-.139c-.832.138-1.595-.138-2.219-.69.555.276 1.11.345 1.803.207.139-.07.347-.07.486-.207.763-.346 1.317-1.036 1.942-1.727 1.04-1.174 2.15-2.486 2.913-4.005 0 .138 0 .138.069.138ZM140.452 78.72s1.803-1.588 1.595-3.867l1.11 1.036c-.069.069.208 1.933-2.705 2.831ZM152.867 85.832c-.138.139-.208.277-.346.415-.208-.138-.417-.276-.555-.484-.278-.276-.347-.621-.347-1.035l.208.414c.277.345.624.552 1.04.69ZM146.209 87.697l-.694.69c-.693-.552-1.526-1.588-2.011-3.66.069.277.902 1.934 2.705 2.97Z" fill="#11110A"/><path d="M22.125 45.437c1.04 2.002 2.914 4.764 5.55 4.28 2.843-.483 3.606-4.073 4.3-6.352 1.248-4.005-3.33-11.117-8.116-10.082-5.063 1.105-3.329 9.184-1.734 12.154ZM95.854 45.437c-1.04 2.002-2.913 4.764-5.549 4.28-2.843-.483-3.606-4.073-4.3-6.352-1.248-4.005 3.33-11.117 8.115-10.082 5.063 1.105 3.26 9.184 1.734 12.154Z" fill="#E2ACAB"/><path d="M96.27 28.933c-2.011 3.176-4.3 4.903-6.589 5.662-5.479 1.865-10.82-1.45-10.82-1.45-5.757-3.798-11.097-2.14-11.097-2.14-13.803 3.245-24.623-2.555-29.2-5.663-1.596-1.104-2.428-1.864-2.428-1.864 1.04 3.176 1.595 6.076 1.734 8.7.139 2.21-.07 4.213-.416 6.008-.07.276-.139.622-.208.898-.347 1.38-.763 2.624-1.318 3.729-.07.207-.208.483-.347.69-1.456 2.762-3.19 4.627-4.578 5.8a84.315 84.315 0 0 1-2.566-14.362c0-.415-.07-.829-.07-1.174v-.553c0-.621-.069-.966-.069-.966V30.52C29.338-.483 58.956 0 58.956 0 73.521 0 81.15 7.941 85.173 15.882c.347.69.624 1.312.902 1.934 3.398-.208 5.687.207 7.144.621 1.179.345 1.734.69 1.734.69 4.37 2.625 1.317 9.806 1.317 9.806Z" fill="#C73D48"/><path d="M89.612 34.595v.346c0 .552-.07 1.035-.07 1.519 0 .276-.069.552-.069.828 0 .346-.07.691-.138 1.036-1.526 13.949-8.254 24.997-8.254 24.997-.139.138-.208.276-.347.415-7.63 8.631-22.958 8.838-22.958 8.838-16.3-1.035-21.987-10.081-21.987-10.081 0-.07-.07-.138-.07-.138-2.15-4.489-3.745-9.046-4.785-13.259 1.318-1.173 3.121-3.038 4.578-5.8.139-.207.208-.483.347-.69 1.179-2.417 1.942-5.456 1.942-9.184V31.97c0-.345-.07-.621-.07-.966-.069-.622-.138-1.174-.208-1.796 0-.138-.07-.345-.07-.483-.138-.621-.207-1.312-.415-1.933-.07-.277-.139-.622-.208-.898 0-.138-.07-.276-.14-.415-.068-.276-.138-.621-.276-.897-.14-.414-.278-.76-.347-1.174 0 0 .208.207.693.552.07.07.208.138.278.208.832.62 2.22 1.657 4.023 2.692.416.277.832.484 1.317.691.07.07.209.07.278.138.208.07.416.207.624.345.139.07.347.139.486.208.208.138.485.207.763.345.138.069.346.138.485.207.277.138.624.276.902.414.277.07.485.207.763.276 1.317.484 2.774.967 4.37 1.313.346.069.762.138 1.109.276.694.138 1.387.276 2.15.414.486.07 1.04.138 1.526.207.347.07.694.07 1.04.07h.14c.415 0 .831.068 1.248.068h1.387c2.566 0 5.271-.276 8.184-.966 0 0 5.41-1.658 11.098 2.14-.14.138 5.202 3.453 10.68 1.588Z" fill="#E2ACAB"/><path d="M30.934 49.234c-2.497-9.598-2.636-16.986-2.636-16.986V30.52c.694.553 1.318 1.312 2.22 1.934 1.734 1.243 3.121-.138 4.786-.553a3.578 3.578 0 0 1 2.427.276c.555 9.323-4.092 14.709-6.797 17.056Z" fill="#952E36"/><path d="M48.898 44.815c2.428 1.036 2.913-2.417 2.566-4.005-.208-1.036-.624-2.555-1.872-2.693-1.249-.138-2.012 1.174-2.22 2.21-.208 1.38.07 3.867 1.526 4.488ZM71.024 44.815c2.427 1.036 2.913-2.417 2.566-4.005-.208-1.036-.624-2.555-1.873-2.693-1.248-.138-2.011 1.174-2.22 2.21-.207 1.38.07 3.867 1.527 4.488ZM63.047 50.201c-.901 1.727-2.08 3.108-3.12 3.867-.486.415-.972.622-1.319.76-.346.138-.554.138-.624.069-.347-.414 1.873-2.417 3.468-5.524.07-.07.07-.207.139-.277v-.069l-.07-.138a22.335 22.335 0 0 0-.416-1.174c-.277-.76-.485-1.45-.624-2.002-.347-1.174-.416-1.934-.139-2.072.209-.069.763.484 1.318 1.589.278.552.625 1.173.971 1.864.139.345.347.76.555 1.105.07.138.139.345.208.483l.139.276c.07.07 0 .07 0 .138l-.07.139c-.069.207-.138.345-.208.552l-.208.414Z" fill="#11110A"/><path d="m89.612 34.94-10.959 6.077c-.07-1.243-.416-3.107-1.248-4.557-1.249-2.003-3.052-3.038-5.202-3.038-2.844 0-5.688 2.002-6.936 4.833a8.537 8.537 0 0 0-.624 2.624c-3.33-2.21-6.659-.69-7.907 0-.139-1.243-.416-3.038-1.249-4.35-1.248-2.003-3.052-3.039-5.202-3.039-2.843 0-5.687 2.003-6.935 4.834-.417 1.036-.694 2.21-.694 3.315l-5.202-3.384-9.017-5.938s0 .345.07.966l8.808 5.939 5.48 3.66c.069.69.208 1.312.485 1.864 1.457 3.522 3.954 5.593 6.728 5.593.624 0 1.318-.138 1.942-.345 3.19-1.036 4.994-4.972 4.924-8.148.763-.483 4.3-2.624 7.838.069 0 1.036.139 2.072.486 2.9 1.456 3.522 3.953 5.593 6.727 5.593.625 0 1.318-.138 1.943-.345 3.12-.967 4.993-4.834 4.924-8.01l10.89-5.317c-.14-.76-.07-1.243-.07-1.795ZM51.534 49.235a5.332 5.332 0 0 1-1.734.277c-3.537 0-5.41-3.591-6.104-5.11-.693-1.588-.624-3.867.208-5.8 1.11-2.625 3.676-4.42 6.312-4.42 1.942 0 3.537.967 4.647 2.762.902 1.45 1.11 3.522 1.18 4.627.069 2.969-1.665 6.698-4.51 7.664Zm21.987 0a5.332 5.332 0 0 1-1.734.277c-3.538 0-5.41-3.591-6.104-5.11-.694-1.588-.624-3.867.208-5.8 1.11-2.625 3.676-4.42 6.312-4.42 1.942 0 3.537.967 4.647 2.762.902 1.45 1.11 3.522 1.179 4.627.07 2.969-1.665 6.698-4.508 7.664Z" fill="#11110A"/><path d="M96.27 28.933c-2.011 3.176-4.3 4.903-6.589 5.662-5.48 1.865-10.82-1.45-10.82-1.45-5.757-3.798-11.097-2.14-11.097-2.14-13.803 3.245-24.623-2.555-29.2-5.663 1.526.207 2.982.207 4.439-.483 2.08-.898 3.676-2.486 5.548-3.867 4.925-3.798 10.82-5.04 16.439-2.003 5.132 2.763 10.265 6.215 15.813 7.941 3.538 1.105 9.086.415 11.306-2.83.832-1.244 1.11-2.763 1.318-4.213.07-.483.07-.898 0-1.38 1.179.344 1.734.69 1.734.69 4.161 2.555 1.11 9.736 1.11 9.736Z" fill="#952E36"/><path d="M86.144 17.885c-4.716.345-9.225-2.072-9.502-2.141 3.745.829 6.658.622 8.6.207.278.622.624 1.243.902 1.934Z" fill="#952E36"/><path d="M89.473 37.358c0 .345-.07.69-.138 1.035l-10.266 9.944-17.756 16.918-10.403-3.177-.07-.069-15.328-18.506-7.075-8.562c0-.415-.07-.829-.07-1.174l7.492 9.046 15.397 18.644 9.85 3.038 17.478-16.642 10.89-10.495Z" fill="#004CB3"/><path d="M80.734 63.805c-.347.414-.763.828-1.18 1.243-7.906 7.457-21.709 7.664-21.709 7.664-12.345-.76-18.657-6.145-20.946-8.7-.694-.829-1.04-1.312-1.04-1.312 0-.07-.07-.138-.07-.138 1.526-2.348 3.954-7.044 4.162-14.363 0 0 17.478 10.15 38.98 0-.07-.138-1.873 8.148 1.803 15.606Z" fill="#99D3FF"/><path d="M80.734 63.805c-.347.414-.763.828-1.18 1.243-4.23-7.32-2.288-14.778-2.288-14.778-19.074 9.944-36.067.207-36.067.207 0 7.182-2.705 11.532-4.37 13.535-.693-.829-1.04-1.312-1.04-1.312 0-.07-.07-.138-.07-.138 1.527-2.348 3.954-7.044 4.163-14.363 0 0 17.478 10.15 38.98 0 0-.138-1.804 8.148 1.872 15.606Z" fill="#fff"/><path d="M59.718 59.523a36.6 36.6 0 0 0 6.381-.552c.971-.207 1.873-.414 2.705-.69.416-.139.832-.208 1.18-.346.346-.138.762-.276 1.109-.414.694-.207 1.318-.553 1.803-.829.555-.207.971-.483 1.318-.69.694-.415 1.18-.622 1.18-.553 0 0-.348.346-1.041.76a7.26 7.26 0 0 1-1.318.828c-.555.277-1.11.622-1.803.898-.347.138-.694.276-1.11.483-.347.139-.832.277-1.248.415-.833.276-1.804.483-2.775.76-1.942.414-4.161.62-6.45.62a45.04 45.04 0 0 1-6.45-.69c-.972-.207-1.873-.414-2.775-.69-.416-.138-.832-.276-1.248-.345-.417-.139-.763-.277-1.11-.415a11.733 11.733 0 0 1-1.873-.76c-.555-.207-1.04-.414-1.387-.62-.763-.346-1.18-.622-1.11-.622.07-.07 1.734.69 4.578 1.657.347.138.763.207 1.11.345.416.138.832.207 1.248.346.832.276 1.734.414 2.705.621 2.011.138 4.162.414 6.381.483ZM59.58 64.357c1.803-.069 3.537-.345 5.063-.621.763-.208 1.526-.346 2.15-.553a29.704 29.704 0 0 0 1.872-.621c2.29-.829 3.607-1.52 3.607-1.45 0 .069-.277.207-.901.552-.278.138-.625.345-1.11.552-.416.208-.902.484-1.526.691-.555.207-1.18.483-1.873.69-.693.208-1.387.415-2.22.622-1.595.345-3.329.621-5.201.69-1.873.07-3.607-.138-5.202-.414a20.82 20.82 0 0 1-2.22-.552 29.642 29.642 0 0 1-1.872-.622c-.555-.207-1.04-.483-1.526-.621l-1.11-.553a64.825 64.825 0 0 0-.902-.552c.07-.07 1.387.621 3.607 1.381.555.207 1.18.414 1.873.552.693.208 1.387.346 2.22.484 1.733.276 3.467.414 5.27.345ZM60.967 69.053c1.942-.207 3.745-.484 5.41-.898 1.595-.483 3.051-.967 4.23-1.52 2.29-1.104 3.469-2.209 3.538-2.07 0 0-.278.275-.832.828-.278.276-.625.483-1.04.76-.209.137-.417.276-.694.483l-.833.414c-1.11.622-2.566 1.174-4.23 1.657a26.636 26.636 0 0 1-5.48.967c-2.011.138-3.884.138-5.618-.069-1.734-.207-3.26-.552-4.44-1.036-.276-.138-.623-.207-.9-.276-.278-.138-.486-.276-.764-.345-.485-.207-.901-.414-1.179-.622-.624-.414-.901-.621-.901-.69.069-.138 1.387.828 3.814 1.588 1.18.414 2.705.621 4.37.829 1.803.138 3.676.138 5.549 0ZM56.18 91.08l3.4-5.8-.625 2.417-2.22 8.631-8.877-15.053s.208-2.417 1.803-3.867c-.07.138-1.04 1.381-.416 3.66l6.936 10.012ZM68.596 80.101l-4.3 14.915-3.676-7.595-1.04-2.141 4.508 4.281 2.844-9.805s-.07-2.486-2.567-4.903c3.19 1.243 4.231 5.248 4.231 5.248Z" fill="#0092FF"/><path d="m51.187 145.356-2.011-.553c1.942-5.317 1.803-11.117 1.595-13.672l.763-.276c.07.069 1.318 8.424-.347 14.501Z" fill="#11110A"/><path d="M98.351 123.328c-2.08-1.933-4.508-4.281-6.45-6.422l-1.249-32.8 7.7 39.222ZM25.524 104.2l-2.844 15.468-6.866-.276 6.52 2.417 3.537-5.593-.347-12.016ZM43.419 93.635l-.07.484L31.212 81.62c.901-.207 1.803-.414 2.774-.552l9.363 12.498.07.07Z" fill="#99D3FF"/></g><defs><clipPath id="a"><path fill="#fff" d="M0 0h158v164H0z"/></clipPath></defs></svg>